<?xml version="1.0" standalone="no"?>
<!DOCTYPE svg PUBLIC "-//W3C//DTD SVG 20010904//EN"
 "http://www.w3.org/TR/2001/REC-SVG-20010904/DTD/svg10.dtd">
<svg version="1.0" xmlns="http://www.w3.org/2000/svg"
 width="300.000000pt" height="300.000000pt" viewBox="0 0 300.000000 300.000000"
 preserveAspectRatio="xMidYMid meet">
<metadata>
Created by potrace 1.11, written by Peter Selinger 2001-2013
</metadata>
<g transform="translate(0.000000,300.000000) scale(0.100000,-0.100000)"
fill="#000000" stroke="none">
<path d="M1435 2650 c-174 -37 -339 -110 -475 -210 -74 -55 -199 -181 -252
-255 -95 -133 -171 -315 -204 -490 -23 -124 -15 -365 17 -480 34 -128 34 -126
-5 -166 -46 -47 -93 -69 -146 -69 -63 0 -101 23 -133 81 -22 40 -32 50 -50 47
-43 -6 -35 -77 16 -134 85 -97 234 -99 367 -4 l29 21 16 -31 c11 -21 21 -29
33 -26 54 16 118 28 199 35 57 6 108 17 135 30 55 27 549 137 722 162 39 5 75
14 81 19 11 9 257 66 410 95 49 9 101 23 115 30 14 8 64 32 112 54 64 29 92
48 109 73 12 18 32 41 45 51 23 17 24 17 24 -2 0 -11 -4 -23 -10 -26 -5 -3
-15 -16 -21 -27 -11 -21 -10 -21 55 -14 37 4 99 17 139 29 l72 23 3 73 c7 186
-86 464 -216 646 -53 74 -178 200 -252 255 -141 103 -301 174 -479 210 -131
26 -329 26 -456 0z"/>
<path d="M2602 973 c-105 -53 -134 -71 -139 -91 -7 -30 2 -36 87 -62 l65 -19
22 27 c21 26 113 193 113 206 0 12 -15 5 -148 -61z"/>
<path d="M1870 774 c-30 -8 -219 -58 -420 -110 -201 -53 -389 -102 -419 -111
l-53 -15 43 -30 c263 -177 639 -236 959 -148 187 51 398 175 524 308 l28 30
-48 7 c-27 3 -71 13 -99 21 -215 62 -398 79 -515 48z"/>
</g>
</svg>
