<?xml version="1.0" standalone="no"?><!DOCTYPE svg PUBLIC "-//W3C//DTD SVG 1.1//EN" "http://www.w3.org/Graphics/SVG/1.1/DTD/svg11.dtd"><svg t="1594816343428" class="icon" viewBox="0 0 1024 1024" version="1.1" xmlns="http://www.w3.org/2000/svg" p-id="7647" xmlns:xlink="http://www.w3.org/1999/xlink" width="200" height="200"><defs><style type="text/css"></style></defs><path d="M850.488889 830.577778 850.488889 432.355556 850.488889 182.044444c0-18.852978-15.280356-34.133333-34.133333-34.133333l-125.155556 0c-18.852978 0-34.133333 15.280356-34.133333 34.133333l0 250.311111-352.711111 0-113.777778 113.777778 0 284.444444-34.133333 0 0 45.511111 728.177778 0 0-45.511111L850.488889 830.577778zM395.377778 785.066667l-102.4 0 0-102.4 102.4 0L395.377778 785.066667zM395.377778 625.777778l-102.4 0 0-102.4 102.4 0L395.377778 625.777778zM566.044444 785.066667l-102.4 0 0-102.4 102.4 0L566.044444 785.066667zM566.044444 625.777778l-102.4 0 0-102.4 102.4 0L566.044444 625.777778zM748.088889 785.066667l-102.4 0 0-102.4 102.4 0L748.088889 785.066667zM748.088889 625.777778l-102.4 0 0-102.4 102.4 0L748.088889 625.777778z" p-id="7648"></path></svg>