<?xml version="1.0" standalone="no"?><!DOCTYPE svg PUBLIC "-//W3C//DTD SVG 1.1//EN" "http://www.w3.org/Graphics/SVG/1.1/DTD/svg11.dtd"><svg t="1594863560581" class="icon" viewBox="0 0 1024 1024" version="1.1" xmlns="http://www.w3.org/2000/svg" p-id="3505" xmlns:xlink="http://www.w3.org/1999/xlink" width="200" height="200"><defs><style type="text/css"></style></defs><path d="M 423.5 848 l -179.2 22.4 c -24.7 0 -44.8 -20.1 -44.8 -44.8 V 198.4 c 0 -24.7 20.1 -44.8 44.8 -44.8 l 358.4 44.8 c 24.7 0 44.8 20.1 44.8 44.8 v 29.9 h 89.6 v -29.9 c 0 -74.1 -60.3 -134.4 -134.4 -134.4 L 244.3 64 c -74.1 0 -134.4 60.3 -134.4 134.4 v 627.2 c 0 74.1 60.3 134.4 134.4 134.4 l 179.4 -22.4 c 0 -0.6 -0.2 -1.2 -0.2 -1.8 V 848 Z" fill="" p-id="3506"></path><path d="M 869.3 594.1 H 734.9 v -26.2 l 117.4 -117.4 c 17.4 -17.4 17.4 -45.9 0 -63.4 c -17.4 -17.4 -45.9 -17.4 -63.4 0 L 690.1 486 l -98.9 -98.9 c -17.4 -17.4 -45.9 -17.4 -63.4 0 c -17.4 17.4 -17.4 45.9 0 63.4 l 117.4 117.4 v 26.2 H 510.9 c -24.6 0 -44.8 20.2 -44.8 44.8 c 0 24.6 20.2 44.8 44.8 44.8 h 134.4 v 44.8 h -89.6 c -24.6 0 -44.8 20.2 -44.8 44.8 c 0 24.6 20.2 44.8 44.8 44.8 h 89.6 v 97.1 c 0 24.6 20.2 44.8 44.8 44.8 c 24.6 0 44.8 -20.2 44.8 -44.8 v -97.1 h 89.6 c 24.6 0 44.8 -20.2 44.8 -44.8 c 0 -24.6 -20.2 -44.8 -44.8 -44.8 h -89.6 v -44.8 h 134.4 c 24.6 0 44.8 -20.2 44.8 -44.8 c 0 -24.6 -20.2 -44.8 -44.8 -44.8 Z" fill="" p-id="3507"></path></svg>