<?xml version="1.0" standalone="no"?><!DOCTYPE svg PUBLIC "-//W3C//DTD SVG 1.1//EN" "http://www.w3.org/Graphics/SVG/1.1/DTD/svg11.dtd"><svg t="1604751652888" class="icon" viewBox="0 0 1024 1024" version="1.1" xmlns="http://www.w3.org/2000/svg" p-id="10824" xmlns:xlink="http://www.w3.org/1999/xlink" width="200" height="200"><defs><style type="text/css"></style></defs><path d="M799.9 96 224.1 96C153.3 96 96 153.3 96 224.1l0 68.3c3.6 1.6 7 3.7 9.9 6.6l198 198L451 349.9c12.5-12.5 32.8-12.5 45.2 0l180.3 180.3 26.9-26.9c11.9-11.9 32.3-6.5 36.6 9.8l38.4 143.1c4.4 16.3-10.5 31.2-26.8 26.8l-143.1-38.4c-16.3-4.4-21.7-24.7-9.8-36.6l32.6-32.6L473.6 417.8 326.5 564.9c-12.5 12.5-32.8 12.5-45.2 0L96 379.6l0 420.3C96 870.7 153.3 928 224.1 928l575.8 0c70.7 0 128.1-57.3 128.1-128.1L928 224.1C928 153.3 870.7 96 799.9 96z" p-id="10825"></path></svg>