<?xml version="1.0" standalone="no"?><!DOCTYPE svg PUBLIC "-//W3C//DTD SVG 1.1//EN" "http://www.w3.org/Graphics/SVG/1.1/DTD/svg11.dtd"><svg t="1594346339166" class="icon" viewBox="0 0 1024 1024" version="1.1" xmlns="http://www.w3.org/2000/svg" p-id="8706" xmlns:xlink="http://www.w3.org/1999/xlink" width="200" height="200"><defs><style type="text/css"></style></defs><path d="M932.70528 16L132.28544 839.04s-46.04416 55.296 0 99.84c38.5024 37.21728 95.90784 0 95.90784 0l336.92672-399.55456 91.904 51.968C992.70656 263.07584 932.70528 16.00512 932.70528 16.00512z m11.61216 855.00928l-242.14016-248.99072-39.168 31.16544-65.88928-39.96672-26.46528 28.09344 277.69856 329.50784s57.344 37.18144 96 0c46.04928-44.51328 0-99.80928 0-99.80928zM173.72672 362.20928l-2.944 3.26144L237.1584 425.41056c67.584 60.73344 163.42016 64.28672 214.272 7.96672 51.00544-56.704 37.504-151.74656-29.66528-212.48L355.35872 160.96256l-2.14528 2.4576L227.2 44.96384c-11.52-10.71616-29.696-10.24-40.67328 1.24928-10.81344 11.67872-10.27072 29.85472 1.28 40.704L314.624 206.23872l-32.03072 35.39456-127.52384-119.90528c-11.52-10.68544-29.72672-10.17344-40.63744 1.24928a28.9024 28.9024 0 0 0 1.152 40.73472l128.03072 120.38656c0.09728 0.128 0.28672 0.128 0.41472 0.22016L211.74272 320c-0.31744-0.384-0.384-0.73728-0.768-1.12128L82.944 198.33856c-11.55072-10.752-29.79328-10.27584-40.64256 1.1776-10.97216 11.6224-10.3936 29.89056 1.18784 40.704L171.52 360.86784c0.67072 0.60928 1.536 0.86528 2.23744 1.37728z" p-id="8707"></path></svg>