<?xml version="1.0" standalone="no"?><!DOCTYPE svg PUBLIC "-//W3C//DTD SVG 1.1//EN" "http://www.w3.org/Graphics/SVG/1.1/DTD/svg11.dtd"><svg t="1594864130209" class="icon" viewBox="0 0 1024 1024" version="1.1" xmlns="http://www.w3.org/2000/svg" p-id="16098" xmlns:xlink="http://www.w3.org/1999/xlink" width="200" height="200"><defs><style type="text/css"></style></defs><path d="M640.634546 666.771321c0 0-23.308797 28.488485-58.282285 0s-155.391844-162.539798-155.391844-162.539798-28.488485-34.331323-60.872129 0c-32.383644 34.331123-132.083048 181.953436-132.083048 181.953436s-31.078329 53.102596-76.411393 0c-39.013749-45.747383-72.226231-26.147272-80.700285-19.848743l0 200.414119c0 34.331123 27.825534 62.156858 62.156658 62.156858l745.881093 0c34.331123 0 62.156858-27.825534 62.156858-62.156858L947.08817 319.128623c-2.361999 0.435105-4.827527 1.388259-7.334427 2.672788L640.634546 666.771321zM185.232708 591.665443c40.049646 0 72.516234-32.466588 72.516234-72.516234 0-10.276632-2.196111-20.01443-6.049898-28.861432l127.131205-157.007949c7.16874 2.382585 14.68964 3.978103 22.666432 3.978103 10.877425 0 21.112486-2.569058 30.353221-6.85795l111.198407 111.198407c-2.361999 7.147954-3.936531 14.648268-3.936531 22.562902 0 40.049646 32.445802 72.516234 72.516234 72.516234 40.049646 0 72.516234-32.466588 72.516234-72.516234 0-8.929746-1.84395-17.383214-4.786155-25.277062l173.251535-202.5067c6.96168 2.216897 14.254535 3.750057 21.982696 3.750057 40.049646 0 72.516234-32.466588 72.516234-72.516234s-32.466588-72.516234-72.516234-72.516234c-40.070432 0-72.516234 32.466588-72.516234 72.516234 0 9.302693 1.906108 18.108323 5.096744 26.271588l-172.671329 201.802178c-7.230897-2.424156-14.834742-4.040261-22.873692-4.040261-9.074847 0-17.694003 1.864736-25.691381 4.910471l-114.285514-114.285514c1.408845-5.635579 2.382585-11.457632 2.382585-17.528316 0-40.049646-32.466588-72.516234-72.516234-72.516234s-72.516234 32.466588-72.516234 72.516234c0 8.971317 1.84395 17.445372 4.806741 25.380792l-129.141042 159.473477c-6.215586-1.74042-12.638631-2.962791-19.434423-2.962791-40.049646 0-72.516234 32.466588-72.516234 72.516234S145.183062 591.665443 185.232708 591.665443z" p-id="16099"></path></svg>