<?xml version="1.0" standalone="no"?><!DOCTYPE svg PUBLIC "-//W3C//DTD SVG 1.1//EN" "http://www.w3.org/Graphics/SVG/1.1/DTD/svg11.dtd"><svg t="1594864007154" class="icon" viewBox="0 0 1024 1024" version="1.1" xmlns="http://www.w3.org/2000/svg" p-id="13138" xmlns:xlink="http://www.w3.org/1999/xlink" width="200" height="200"><defs><style type="text/css"></style></defs><path d="M645.2736 645.6832l0.1024-70.144s-94.5152 116.4288-94.5152 163.7376 94.5152 163.6352 94.5152 163.6352l-0.1024-69.9392h94.3104a65.03424 65.03424 0 0 0 57.0368-32.5632l116.6336-202.3424a95.13984 95.13984 0 0 1-83.0464 47.616h-184.9344z m53.4528-467.968a74.06592 74.06592 0 0 0-129.024 0.4096s-21.7088 37.376-43.52 75.3664l44.032 76.288-61.2352 34.304s147.968 23.552 188.928-0.1024 94.5152-163.6352 94.5152-163.6352l-60.6208 35.1232c0.1024 0-23.6544-41.3696-33.0752-57.7536z m199.0656 411.0336a74.45504 74.45504 0 0 0-0.3072-74.752s-46.7968-81.1008-84.0704-145.5104l-162.0992 93.696 94.5152 163.6352c43.8272 0 87.04 0.1024 87.04 0.1024a74.67008 74.67008 0 0 0 64.9216-37.1712z m-564.1216-38.0928l60.7232 35.1232s-53.5552-139.9808-94.5152-163.6352-189.0304 0-189.0304 0l60.7232 34.816-47.2064 81.7152a65.536 65.536 0 0 0-0.3072 65.7408l116.736 202.24a95.75424 95.75424 0 0 1 0.3072-95.744z m-77.0048 247.1936a74.45504 74.45504 0 0 0 64.9216 37.1712h168.0384v-187.2896h-189.1328c-21.8112 37.888-43.4176 75.3664-43.52 75.4688a74.27072 74.27072 0 0 0-0.3072 74.6496z m-10.6496-473.1904l162.816 93.9008s122.0608-211.8656 144.384-250.1632a92.86656 92.86656 0 0 1 81.408-47.3088h-233.472a66.46784 66.46784 0 0 0-56.6272 33.0752c-20.6848 33.4848-98.5088 170.496-98.5088 170.496z" p-id="13139"></path></svg>