<?xml version="1.0" standalone="no"?><!DOCTYPE svg PUBLIC "-//W3C//DTD SVG 1.1//EN" "http://www.w3.org/Graphics/SVG/1.1/DTD/svg11.dtd"><svg t="1594817135408" class="icon" viewBox="0 0 1024 1024" version="1.1" xmlns="http://www.w3.org/2000/svg" p-id="14181" xmlns:xlink="http://www.w3.org/1999/xlink" width="200" height="200"><defs><style type="text/css"></style></defs><path d="M727.641315 352.952634c-18.977213 0-34.362622-15.386432-34.362622-34.362622v-45.227064c0-18.951631-15.420201-34.362622-34.362622-34.362622h-80.991616c-18.977213 0-34.362622-15.386432-34.362622-34.362622v-36.930098c0-15.872502-10.570753-30.042223-24.597211-32.979112-13.020548-2.684132-22.366404 2.777253-26.728758 6.316869-7.483438 6.082532-11.778254 15.017018-11.778254 24.505114v39.086203c0 18.977213-15.386432 34.362622-34.362622 34.362622h-81.007989c-18.943444 0-34.362622 15.410991-34.362622 34.362623V318.588989c0 18.977213-15.386432 34.362622-34.362622 34.362622s-34.362622-15.386432-34.362622-34.362622v-45.227064c0-56.846706 46.242184-103.08889 103.088889-103.08889h46.645367v-4.723582c0-30.277584 13.557784-58.649771 37.18183-77.844949 23.557532-19.127639 54.245462-26.485211 84.129073-20.244066 45.906539 9.597589 79.245855 51.753711 79.245855 100.245122v2.567475h46.627971c56.846706 0 103.08889 46.242184 103.088889 103.08889V318.588989c-0.00307 18.977213-15.389502 34.363645-34.365692 34.363645z" fill="#2c2c2c" p-id="14182"></path><path d="M718.177779 958.708971H305.822221c-56.846706 0-103.08889-46.242184-103.08889-103.088889V434.154028c0-75.79015 61.662385-137.451512 137.451512-137.451512h343.629291c75.79015 0 137.451512 61.662385 137.451512 137.451512V855.620082c0.001023 56.846706-46.24116 103.08889-103.087867 103.088889zM340.184843 365.42776c-37.903262 0-68.726268 30.831192-68.726268 68.726268V855.620082c0 18.943444 15.420201 34.362622 34.362622 34.362622h412.355559c18.943444 0 34.362622-15.420201 34.362622-34.362622V434.154028c0-37.895075-30.823006-68.726268-68.726267-68.726268H340.184843z" fill="#2c2c2c" p-id="14183"></path><path d="M386.75843933 804.070009h-58.417481V494.803339h58.417481c15.182794 0 27.490098 15.384385 27.490097 34.362622v240.540402c0 18.97926-12.307304 34.363645-27.490097 34.363646z" fill="#2c2c2c" p-id="14184"></path></svg>