<?xml version="1.0" standalone="no"?><!DOCTYPE svg PUBLIC "-//W3C//DTD SVG 1.1//EN" "http://www.w3.org/Graphics/SVG/1.1/DTD/svg11.dtd"><svg t="1594816431233" class="icon" viewBox="0 0 1024 1024" version="1.1" xmlns="http://www.w3.org/2000/svg" p-id="7847" xmlns:xlink="http://www.w3.org/1999/xlink" width="200" height="200"><defs><style type="text/css"></style></defs><path d="M921.6 765.952c0 0 0 0 0 53.248s-155.648 102.4-155.648 102.4L765.952 1024 614.4 1024l-204.8 0L258.048 1024l0-102.4c0 0-155.648-53.248-155.648-102.4s0-53.248 0-53.248l155.648 0L258.048 614.4c0 0-155.648-53.248-155.648-102.4 0-53.248 0-53.248 0-53.248l155.648 0L258.048 307.2c0 0-155.648-53.248-155.648-102.4 0-53.248 0-53.248 0-53.248l155.648 0C258.048 69.632 323.584 0 409.6 0l204.8 0c86.016 0 155.648 69.632 155.648 151.552l155.648 0c0 0 0 0 0 53.248 0 53.248-155.648 102.4-155.648 102.4l0 151.552 155.648 0c0 0 0 0 0 53.248 0 53.248-155.648 102.4-155.648 102.4l0 151.552L921.6 765.952zM512 102.4C454.656 102.4 409.6 147.456 409.6 204.8c0 57.344 45.056 102.4 102.4 102.4C569.344 307.2 614.4 262.144 614.4 204.8 614.4 147.456 569.344 102.4 512 102.4zM512 409.6c-57.344 0-102.4 45.056-102.4 102.4 0 57.344 45.056 102.4 102.4 102.4 57.344 0 102.4-45.056 102.4-102.4C614.4 454.656 569.344 409.6 512 409.6zM512 716.8c-57.344 0-102.4 45.056-102.4 102.4 0 57.344 45.056 102.4 102.4 102.4 57.344 0 102.4-45.056 102.4-102.4C614.4 761.856 569.344 716.8 512 716.8z" p-id="7848"></path></svg>