<?xml version="1.0" standalone="no"?><!DOCTYPE svg PUBLIC "-//W3C//DTD SVG 1.1//EN" "http://www.w3.org/Graphics/SVG/1.1/DTD/svg11.dtd"><svg t="1594864460873" class="icon" viewBox="0 0 1024 1024" version="1.1" xmlns="http://www.w3.org/2000/svg" p-id="19164" xmlns:xlink="http://www.w3.org/1999/xlink" width="200" height="200"><defs><style type="text/css"></style></defs><path d="M656.988 951.008 366.974 951.008c-13.992 0-24.66-0.17-32-0.515-7.337-0.34-17.002-1.015-28.99-2.015-11.99-1-21.152-2.67-27.49-4.99-6.335-2.33-13.672-5.825-22.015-10.5-8.342-4.67-14.677-10.335-19.007-16.99-4.33-6.655-8-15.16-11.007-25.505-3.01-10.345-4.512-21.845-4.512-34.495 0-30.68 1.835-60.51 5.502-89.505 3.67-28.99 9.335-58.325 16.992-88 7.66-29.675 17.825-58.175 30.497-85.505 12.67-27.325 27.84-53.66 45.502-79.005 17.665-25.345 38.667-49.175 63.007-71.49 24.342-22.315 51.18-42.142 80.512-59.487l96.002 0c161.34 94.677 242.014 252.342 242.014 472.991 0 12.67-1.505 24.17-4.515 34.495-3.005 10.325-6.675 18.825-11.005 25.505-4.335 6.68-10.665 12.34-19.01 16.99-8.34 4.65-15.68 8.15-22.015 10.5-6.335 2.345-15.5 4.01-27.49 4.99-11.99 0.98-21.65 1.65-28.99 2.015-7.34 0.365-18.005 0.535-32 0.515L656.988 951.007zM535.009 527.009l0-48.995-48.002 0 0 48.995c-24 4.01-42.005 13.51-54.015 28.51-12.01 15-18.017 32.16-18.017 51.49 0 22.675 5.003 40.51 15.01 53.5 10.005 12.995 22.175 21.325 36.51 24.995 14.337 3.665 28.672 6.665 43.01 8.99 14.335 2.325 26.505 6.155 36.51 11.49 10.005 5.335 15.01 14.005 15.01 26.015 0 2.67-1.005 5.835-3.01 9.505-2.005 3.665-4.845 7.165-8.51 10.495-3.67 3.33-8.835 5.995-15.49 8s-13.995 3.01-22.015 3.01c-10.667 0-20-1.165-28-3.49-8-2.325-13.835-5.16-17.505-8.51-3.667-3.35-6.505-7.02-8.51-11.01-2.007-3.99-3.17-6.83-3.49-8.51-0.32-1.69-0.49-2.85-0.51-3.49l-39.01 20 4 20c10.007 22.68 32.342 36.34 67.01 40.99l0 50.02 48.99 0 0-50.02c24.665-4.01 42.995-13.34 55.01-28 12.01-14.655 18.015-31.99 18.015-52 0-18.665-3.67-34.16-11.01-46.495-7.34-12.33-16.34-20.83-27.005-25.505-10.665-4.67-22.165-8.5-34.495-11.485-12.33-2.985-23.832-5.155-34.497-6.495-10.667-1.345-19.67-4.685-27.007-10.02-7.34-5.33-11.01-12.67-11.01-22.015l0-2.015c0-4.01 0.333-7.68 0.992-11.01 0.663-3.325 2.165-7.5 4.513-12.51 2.347-5.01 6.847-8.84 13.505-11.49 6.655-2.64 15.327-3.98 26.015-4 11.33 0 21.33 1.505 30.015 4.515 8.685 3.005 14.85 6.505 18.495 10.495 3.65 3.99 6.65 7.99 8.995 12 2.345 4.01 3.505 7.35 3.485 10.015l0 4 39.01-20-4.99-19.005c-10.67-22-33.335-35.66-68-40.995L535.011 527.009zM559.999 335.007l-96 0c-12.672-28.01-25.505-52.01-38.495-72-12.992-19.987-23.49-33.492-31.49-40.512-8-7.017-14.495-13.022-19.487-18.015-4.992-4.992-7.487-9.162-7.487-12.512 0-31.337 8.33-47.007 24.992-47.007l23.007 0 0-28.992c0-2.005 0.33-4.01 0.992-6.015 0.66-2.005 1.663-3.67 3.008-4.992 1.345-1.323 2.848-2.655 4.512-4 1.663-1.345 3.497-2.347 5.503-3.007 2.007-0.662 4.342-0.993 7.01-0.993l152.99 0c2.005 0 4.015 0.33 6.015 0.993 2.01 0.66 3.84 1.662 5.505 3.007 1.665 1.345 3.17 2.677 4.515 4 1.34 1.322 2.345 2.987 3.005 4.992 0.665 2.005 0.995 4.01 0.995 6.015l0 28.992 22.015 0c10.005 0 16.845 4.832 20.51 14.495 3.67 9.665 5.505 20.502 5.505 32.512 0 4.012-2.495 8.512-7.49 13.505-4.99 4.992-11.485 10.997-19.485 18.015-8 7.02-18.495 20.352-31.49 40-12.99 19.647-25.825 43.477-38.495 71.487L559.999 335.007z" p-id="19165"></path></svg>